<?xml version="1.0" encoding="UTF-8"?>
<svg id="Camada_2" xmlns="http://www.w3.org/2000/svg" viewBox="0 0 1007.81 672.55">
  <defs>
    <style>
      .cls-1 {
        fill: #72844e;
      }
    </style>
  </defs>
  <g id="Camada_1-2" data-name="Camada_1">
    <path class="cls-1" d="M1005.74,59.87c-15.84-33.46-119.26-15.08-207.59,4.67-89.66,20.04-178.85,50.22-265.19,89.61l2.21-9.68c7.74-33.81,11.27-49.24,6.24-56.39-4.66-6.64-12.4-11.08-22.99-13.33,6.77-2.08,12.55-5.56,16.48-10.19,4.18-4.92,5.73-10.24,8.35-20,2.77-10.37,5.17-19.32.16-25.81-1.3-1.68-2.47-2.33-3.61-2.95-1.12-.61-2.38-1.31-4.52-3.4-2.24-2.2-3.28-3.85-4.2-5.29-1.12-1.76-2.18-3.43-4.73-4.96-3.98-2.39-8.25-2.22-13.17-2.03-2.39.09-3.82.37-5.09.62-1.33.26-2.53.55-4.73.46-2.09-.02-3.13-.23-4.32-.47-1.18-.24-2.51-.51-4.83-.61-5.54-.23-9.45-.21-13.18,2.03-2.56,1.53-3.62,3.2-4.73,4.96-.92,1.45-1.96,3.09-4.2,5.29-2.13,2.09-3.4,2.79-4.52,3.4-1.14.62-2.31,1.27-3.61,2.95-5.01,6.5-2.61,15.45.16,25.82,2.63,9.86,4.65,15.65,8.34,20,3.92,4.62,9.69,8.1,16.44,10.18-10.63,2.25-18.38,6.69-23.06,13.35-5.02,7.15-1.49,22.58,6.24,56.39l2.15,9.42c-86.16-39.26-175.15-69.35-264.61-89.35C121.31,44.79,17.9,26.41,2.06,59.87c-7.86,16.6,8.47,41.35,20.39,59.41,0,0,0,0,0,.01,20.66,31.3,47.29,48.18,65.52,58.15,80.98,44.3,175.01,50.08,218.57,50.08,9.47,0,16.56-.27,20.61-.48,14.23-.74,28.44-2.1,42.61-3.98-37.82,11.09-74.7,24.05-110.35,38.85-66.75,27.71-142.71,63.29-137.6,92.72,2.54,14.7,24.68,23.38,40.84,29.72h0c27.91,10.94,53.08,9.72,69.58,7.85,10.71-1.22,21.23-3.1,31.47-5.49,74.82-17.49,134.75-62.18,147.26-72.01,27.09-21.26,51.63-45.95,73.29-73.52.77,45.48-1.44,100.81-3.24,146.04-.64,16.15-1.24,31.1-1.64,43.99-2.17,69.74-.06,127.64,6.27,172.09,3.08,21.69,7.12,43.42,11.96,64.82.96,2.8,3.64,4.61,6.47,4.42,2.53-.17,4.75-1.89,5.61-4.37,6.16-26.72,9.73-49.08,11.97-64.88,6.32-44.49,8.43-102.39,6.26-172.09-.4-12.9-1-27.88-1.64-44.06-1.81-45.41-4.03-101.02-3.23-146.6,21.84,27.95,46.64,52.98,74.05,74.48,12.51,9.82,72.44,54.52,147.26,72.01,10.24,2.39,20.75,4.28,31.47,5.49,16.5,1.87,41.67,3.1,69.58-7.85h0c16.16-6.34,38.3-15.02,40.84-29.72,5.1-29.42-70.86-65-137.6-92.72-36.26-15.05-73.79-28.22-112.3-39.43,14.73,2.01,29.51,3.46,44.31,4.23,4.05.21,11.13.48,20.61.48,43.56,0,137.6-5.79,218.57-50.08,18.24-9.98,44.87-26.86,65.52-58.15h0c11.92-18.08,28.25-42.82,20.39-59.43Z"/>
  </g>
</svg>